<svg width="224" height="224" viewBox="0 0 224 224" fill="none" xmlns="http://www.w3.org/2000/svg">
<path d="M92.0331 46.4696H71.131C62.4851 46.4696 55.4762 53.4785 55.4762 62.1244C55.4762 70.7703 62.4851 77.7791 71.131 77.7791H155.5C174.554 77.7791 190 93.2253 190 112.279L190 115.541C190 134.595 174.554 150.041 155.5 150.041H41C39.6193 150.041 38.5 148.922 38.5 147.541C38.5 146.16 39.6193 145.041 41 145.041H155.5C171.792 145.041 185 131.833 185 115.541L185 112.279C185 95.9867 171.792 82.7791 155.5 82.7791H71.131C59.7236 82.7791 50.4762 73.5317 50.4762 62.1244C50.4762 50.7171 59.7236 41.4696 71.131 41.4696H94.1127L92.0331 46.4696Z" fill="#E03939"/>
<path d="M131.784 46.4696H157.143C158.524 46.4696 159.643 45.3503 159.643 43.9696C159.643 42.5889 158.524 41.4696 157.143 41.4696H129.749L131.784 46.4696Z" fill="#E03939"/>
<path d="M125.896 32H168.024C169.405 32 170.524 30.8807 170.524 29.5C170.524 28.1193 169.405 27 168.024 27H123.861L125.896 32Z" fill="#E03939"/>
<path d="M100.131 27H70.33C50.8178 27 35 42.8178 35 62.33C35 81.8422 50.8178 97.66 70.33 97.66H153.071C162.158 97.66 169.524 105.026 169.524 114.112C169.524 123.199 162.158 130.565 153.071 130.565H52.9762C51.5955 130.565 50.4762 131.684 50.4762 133.065C50.4762 134.445 51.5955 135.565 52.9762 135.565H153.071C164.919 135.565 174.524 125.96 174.524 114.112C174.524 102.265 164.919 92.66 153.071 92.66H70.33C53.5792 92.66 40 79.0808 40 62.33C40 45.5792 53.5792 32 70.33 32H98.0513L100.131 27Z" fill="#E03939"/>
<path d="M64.0376 127.477L104.533 27.3029H119.257L148.543 97.6625H125.246L112.022 65.486L87.4998 127.477H64.0376Z" fill="#E03939"/>
<path d="M127.178 102.362L137.5 127.477L160.914 127.382L150.5 102.362H127.178Z" fill="#E03939"/>
<path d="M97 80H124V95H97V80Z" fill="#E03939"/>
<path d="M149.76 173.104C149.419 173.104 149.152 173.04 148.96 172.912C148.768 172.763 148.672 172.571 148.672 172.336C148.672 172.165 148.747 171.931 148.896 171.632L150.24 168.976H153.344L152.608 170.608H161.024L160.64 173.104H156.864C156.757 173.723 156.576 174.459 156.32 175.312H161.088L160.768 177.84H155.456C157.184 178.757 158.933 179.877 160.704 181.2L158.656 182.992C157.355 182.032 156.523 181.403 156.16 181.104C155.413 180.571 154.72 180.101 154.08 179.696C152.757 181.445 151.029 182.949 148.896 184.208L146.464 182.416C147.765 181.691 148.864 180.965 149.76 180.24C150.656 179.515 151.403 178.715 152 177.84H147.328L147.648 175.312H153.312C153.589 174.587 153.792 173.851 153.92 173.104H149.76ZM172.256 182.064H161.152L162.336 172.528C162.421 171.845 162.677 171.312 163.104 170.928C163.531 170.544 164.085 170.352 164.768 170.352H171.232C171.936 170.352 172.501 170.597 172.928 171.088C173.355 171.557 173.515 172.123 173.408 172.784L172.256 182.064ZM164.384 179.504H169.664L170.368 172.912H165.184L164.384 179.504ZM169.024 196.208H148.928L150.304 185.584C150.389 184.944 150.667 184.421 151.136 184.016C151.627 183.611 152.213 183.408 152.896 183.408H167.936C168.64 183.408 169.195 183.589 169.6 183.952C170.005 184.315 170.208 184.816 170.208 185.456C170.208 185.669 170.197 185.829 170.176 185.936L169.024 196.208ZM167.072 186.096H153.28L152.96 188.528H166.784L167.072 186.096ZM152.352 193.52H166.24L166.496 191.088H152.64L152.352 193.52Z" fill="#404040"/>
<path d="M140.512 175.76C139.893 180.069 138.549 184.165 136.48 188.048C137.739 190.629 139.435 193.243 141.568 195.888L138.336 196.656C137.163 194.971 135.989 193.04 134.816 190.864C133.344 193.083 131.744 194.992 130.016 196.592L127.04 195.44C129.536 193.221 131.648 190.661 133.376 187.76C132.459 185.669 131.701 183.621 131.104 181.616L130.272 183.536H127.296C128.597 180.507 129.6 178.021 130.304 176.08C131.477 172.752 132.277 170.373 132.704 168.944H135.808C135.509 169.925 135.072 171.237 134.496 172.88H142.72L142.368 175.76H140.512ZM124.96 169.104L124.32 174.16H129.408L129.056 176.752H124.352C125.184 177.221 126.347 178 127.84 179.088L128.672 179.664L126.944 181.616C125.749 180.485 124.672 179.547 123.712 178.8L123.328 181.872H120.384L120.736 179.152C119.2 180.688 117.493 181.989 115.616 183.056L113.792 181.104C116.267 179.781 118.4 178.331 120.192 176.752H115.36L115.68 174.16H121.376L122.016 169.104H124.96ZM120.768 173.264H117.792L116.352 169.68H119.168L120.768 173.264ZM127.04 169.776H129.92L128.128 173.264H125.248L127.04 169.776ZM132.8 177.488C133.483 180.304 134.208 182.683 134.976 184.624C136.192 181.936 137.088 178.981 137.664 175.76H133.472L132.8 177.488ZM119.68 182.704H122.816L122.048 184.336H125.728C126.56 184.336 127.2 184.507 127.648 184.848C128.096 185.168 128.32 185.616 128.32 186.192C128.32 186.661 128.16 187.205 127.84 187.824C126.965 189.403 125.781 190.779 124.288 191.952C125.653 192.699 126.763 193.328 127.616 193.84L125.44 195.856C124.757 195.408 124.171 195.045 123.68 194.768L121.824 193.68C119.755 194.853 117.525 195.803 115.136 196.528L113.376 194.32C115.488 193.68 117.365 192.955 119.008 192.144L117.824 191.504C117.397 191.333 117.056 191.173 116.8 191.024C116.096 190.704 115.744 190.299 115.744 189.808C115.744 189.445 115.915 189.051 116.256 188.624C116.789 187.899 117.163 187.365 117.376 187.024H114.656L114.944 184.336H118.912L119.68 182.704ZM120.544 187.024C120.053 187.856 119.531 188.645 118.976 189.392L120.192 189.936L121.568 190.576C122.699 189.744 123.648 188.816 124.416 187.792C124.587 187.557 124.672 187.387 124.672 187.28C124.672 187.109 124.405 187.024 123.872 187.024H120.544Z" fill="#404040"/>
<path d="M106.176 187.6L105.248 196.464H102.24L103.136 188.016L94.208 189.232L94.464 186.256L103.456 185.008L105.184 169.04H108.192L106.496 184.592L109.856 184.112L109.504 187.152L106.176 187.6ZM92.8 186.448L91.936 185.2L90.784 183.536L89.472 196.432H86.432L87.584 185.04C86.4533 186.747 85.184 188.411 83.776 190.032L81.376 188.24C82.4853 187.109 83.6053 185.829 84.736 184.4C85.888 182.971 86.9226 181.499 87.84 179.984H83.424L83.744 177.168H88.352L88.736 173.296C86.6453 173.509 85.2053 173.648 84.416 173.712L84.8 170.864C86.976 170.629 88.8853 170.405 90.528 170.192C92.1706 169.957 93.8453 169.68 95.552 169.36L95.2 172.336C94.4533 172.485 93.344 172.667 91.872 172.88L91.424 177.168H95.2L94.848 179.984H91.136V180.112C92.544 181.584 93.8986 183.131 95.2 184.752L92.8 186.448ZM102.56 177.2L97.472 174.096L97.888 171.056L102.944 174L102.56 177.2ZM96.416 180.624L96.8 177.648L102.112 180.784L101.728 183.888L96.416 180.624Z" fill="#404040"/>
<path d="M61.824 175.952C60.992 177.573 60.0746 179.035 59.072 180.336C60.6293 181.573 61.9413 182.832 63.008 184.112L60.736 186.032C59.7546 184.795 58.88 183.792 58.112 183.024L56.544 196.208H53.536L54.944 184.432C53.9413 185.264 52.736 186.149 51.328 187.088L49.376 184.784C51.3813 183.653 53.1733 182.341 54.752 180.848C56.3306 179.333 57.5253 177.744 58.336 176.08C58.4213 175.909 58.464 175.771 58.464 175.664C58.464 175.579 58.4106 175.515 58.304 175.472C58.1973 175.429 58.0266 175.408 57.792 175.408H52.16L52.48 172.528H56.16L55.168 168.688H58.24L59.232 172.528H59.808C60.6186 172.528 61.2266 172.688 61.632 173.008C62.0586 173.307 62.272 173.744 62.272 174.32C62.272 174.768 62.1226 175.312 61.824 175.952ZM69.952 192.784H77.44L77.088 195.76H59.776L60.128 192.784H66.688L68.192 180.176H62.624L62.976 177.168H68.544L69.536 168.944H72.832L71.84 177.168H77.408L77.088 180.176H71.456L69.952 192.784Z" fill="#404040"/>
</svg>
